<svg xmlns="http://www.w3.org/2000/svg" xmlns:xlink="http://www.w3.org/1999/xlink" viewBox="0 0 140 50"><defs><style>.cls-1{isolation:isolate;}.cls-2{fill:#ffd600;}.cls-3{fill:#d50057;}.cls-4{fill:#ff5f00;}.cls-5,.cls-6{mix-blend-mode:overlay;}.cls-5{fill:url(#radial-gradient);}.cls-6{opacity:0.5;fill:url(#radial-gradient-2);}</style><radialGradient id="radial-gradient" cx="11.88" cy="23.79" r="14.25" gradientUnits="userSpaceOnUse"><stop offset="0" stop-color="#fff"/><stop offset="1" stop-color="#fff" stop-opacity="0"/></radialGradient><radialGradient id="radial-gradient-2" cx="11.88" cy="23.76" r="14.26" xlink:href="#radial-gradient"/></defs><g class="cls-1"><g id="图层_1" data-name="图层 1"><path class="cls-2" d="M18.2,14.35a6.5,6.5,0,0,0-6.49,6.49V36.73h13V20.84A6.49,6.49,0,0,0,18.2,14.35Z"/><path class="cls-3" d="M27.6,23.75H11.71v13H27.6a6.49,6.49,0,1,0,0-13Z"/><rect class="cls-4" x="11.71" y="23.75" width="12.98" height="12.98"/><rect class="cls-5" x="11.71" y="23.75" width="12.98" height="12.98"/><rect class="cls-6" x="11.71" y="23.72" width="12.98" height="13"/><path d="M52.21,32V29.93h2.54V22.15h-2.4v-1.9h5v9.68h2.54V32Z"/><path d="M65.3,32.17c-2.81,0-3.65-1.7-3.65-4.36s1.08-4.54,3.77-4.54c3,0,3.61,1.69,3.61,4.46S67.91,32.17,65.3,32.17Zm.09-6.85c-1.11,0-1.12,1-1.12,2.43s.08,2.35,1.13,2.35,1-.92,1-2.37S66.46,25.32,65.39,25.32Z"/><path d="M77.75,25.74a5,5,0,0,0-1.93-.36c-1.07,0-2.11.49-2.11,2.31,0,1.63.4,2.36,2.44,2.36A8.34,8.34,0,0,0,78,29.88l.34,1.95a9.65,9.65,0,0,1-2.46.29c-3.59,0-4.82-1.29-4.82-4.46,0-2.65,1.77-4.39,4.65-4.39a5.49,5.49,0,0,1,2.72.59Z"/><path d="M85.11,32l-1.85-3.79V32h-2.6V20.25h2.6v6.41l2-3.17h2.79L85.5,27.14,88.24,32Z"/><path d="M90.61,32V29.94h2.53V22.16H90.75v-1.9h5v9.68h2.53V32Z"/><path d="M100.36,32V29.94h2.43V25.4h-2.28V23.5h4.86v6.44h2.33V32Zm3.69-9.34-1.79-1.81,1.79-1.79,1.79,1.79Z"/><path d="M114.16,32,112.3,28.2V32h-2.6V20.26h2.6v6.41l2-3.17h2.79l-2.58,3.66L117.28,32Z"/><path d="M123,32.14c-2.57,0-4.14-.88-4.14-4.27s1.36-4.58,3.92-4.58,3.34,2,3.34,4.57v.93h-4.67c.09,1.1.81,1.17,1.72,1.17a17.33,17.33,0,0,0,2.65-.21l.31,2A11.59,11.59,0,0,1,123,32.14Zm-.42-6.87c-.73,0-1,.48-1.06,1.74h2C123.44,25.71,123.19,25.27,122.55,25.27Z"/><path d="M128.18,24.32a1.23,1.23,0,1,1,2.45,0,1.23,1.23,0,1,1-2.45,0Zm2.14,0a.92.92,0,1,0-.91,1A.9.9,0,0,0,130.32,24.32Zm-1.41-.63h.54c.28,0,.5.12.5.4a.38.38,0,0,1-.22.35l.27.49h-.35l-.2-.4h-.2v.4h-.34Zm.47.61c.15,0,.22-.08.22-.18s-.06-.18-.21-.18h-.14v.36Z"/><path d="M47.22,32.11H43v-12H47c2.34,0,3.32,1.31,3.32,3.37A2.61,2.61,0,0,1,49.24,26a2.79,2.79,0,0,1,1.65,2.7C50.89,30.89,49.36,32.11,47.22,32.11Zm-.39-9.92H45.3V25h1.53c1,0,1.11-.56,1.11-1.39S47.82,22.19,46.83,22.19ZM47,27.06H45.3v3H47a1.38,1.38,0,0,0,1.51-1.49A1.37,1.37,0,0,0,47,27.06Z"/><rect x="42.91" y="20.25" width="2.6" height="11.74"/></g></g></svg>