<svg id="图层_1" data-name="图层 1" xmlns="http://www.w3.org/2000/svg" viewBox="0 0 140 50"><defs><style>.cls-1{fill:#ff8e00;}</style></defs><g id="logo_defi备份" data-name="logo defi备份"><g id="defi-logo"><path id="形状结合" class="cls-1" d="M35.72,14.68h.57c5.13.33,9.19,5,9.19,10.83S41.42,36,36.29,36.35h0l-.57,0H25V34H35.68l.5,0c3.76-.25,7-3.79,7-8.47s-3.25-8.21-7-8.47h0l-.5,0H27.26V28.67H25v-14ZM23.43,18.61V30.28H34.52a4.89,4.89,0,0,0,4.84-4.75,4.9,4.9,0,0,0-4.84-4.75H28.64V18.61h6a7.13,7.13,0,0,1,7,6.91,7.12,7.12,0,0,1-7,6.91H21.14V18.61Z"/></g><path id="形状结合-2" data-name="形状结合" d="M109.76,23.77v6.07l.16.16a4.21,4.21,0,0,0,1.1.94,5.07,5.07,0,0,0,2.09.4c.9,0,2,0,3.2,0h2.42l1.87-.1h0l-.4,1.64h-3.65l-2.82,0a12.26,12.26,0,0,1-2.54-.27,3.4,3.4,0,0,1-1.64-1.1c-.22-.27-.41-.4-.6-.4s-.9.7-1.73,2.14h0L106,32.1a6.76,6.76,0,0,1,2.2-2.43h0V25.3H106V23.77Zm-13.7-5.44A27.29,27.29,0,0,1,97.38,21h4.9v1.26a18.57,18.57,0,0,1-7.78,7.89,3.72,3.72,0,0,0,2.29.95c.75,0,1.82.05,3.21.05h.14c.83,0,2-.05,3.36-.11h0l-.41,1.64H99.87c-1.22,0-2.11,0-2.66,0a5.26,5.26,0,0,1-4-1.47c-.35-.36-.62-.54-.84-.54s-.88.81-1.74,2.44h0l-1.32-.93C90.43,30,91.45,29,92.44,29a1.21,1.21,0,0,1,.59.13.26.26,0,0,1,.13.06,18,18,0,0,0,7.08-6.49H90.35V21h5.18a16,16,0,0,0-1.4-2.38h0ZM66.61,22.54A4,4,0,0,1,71,26.93h0v1.28H64.72v.13A2.5,2.5,0,0,0,65.38,30a2.36,2.36,0,0,0,1.74.64,7.34,7.34,0,0,0,1.69-.19,7.68,7.68,0,0,0,1.59-.58h0v2l-.21.1a6,6,0,0,1-1.3.42,8.59,8.59,0,0,1-1.89.17A5.85,5.85,0,0,1,64.43,32a4,4,0,0,1-1.75-1.63A5.36,5.36,0,0,1,62,27.62a6.06,6.06,0,0,1,.58-2.81,3.78,3.78,0,0,1,1.6-1.7A4.83,4.83,0,0,1,66.61,22.54ZM53.7,19.74h.23a7.67,7.67,0,0,1,3.22.71,5.19,5.19,0,0,1,2.26,2.09,6.61,6.61,0,0,1,.81,3.4,6.09,6.09,0,0,1-1.83,4.82,7.38,7.38,0,0,1-5.08,1.62H49.73V19.74Zm26.85,0v2.2H75.94v3.25h4.29v2.2H75.94v5H73.3V19.74Zm5.79,3v9.66H83.7V22.72Zm30.81-4.39,1.61.58a9.9,9.9,0,0,1-.71,1.1h2.24v1.54H116l-.29.86h3.59v8h-7.84v-8h2.47a5.35,5.35,0,0,0,.27-.86h-3.67V20h2.22a12.17,12.17,0,0,0-.73-1.09h0l1.54-.57a9.92,9.92,0,0,1,.94,1.66h1.69a12.83,12.83,0,0,0,1-1.68ZM53.84,21.94H52.41v8.23h1.15c2.58,0,3.88-1.39,3.88-4.16a4.43,4.43,0,0,0-.92-3.08,3.49,3.49,0,0,0-2.68-1Zm63.89,6.13H113V29h4.74Zm0-2.07H113v.77h4.74Zm-51.1-1.58a1.73,1.73,0,0,0-1.28.49,2.42,2.42,0,0,0-.58,1.54h3.7A2.37,2.37,0,0,0,68,25,1.62,1.62,0,0,0,66.63,24.42Zm51.1-.54H113v.81h4.74Zm-10.27-5.34a22.3,22.3,0,0,1,2.7,2.52h0L109,22.21a16.11,16.11,0,0,0-2.66-2.6h0ZM85,18.93a1.86,1.86,0,0,1,1,.27,1.12,1.12,0,0,1,.42,1,1.14,1.14,0,0,1-.42,1,1.78,1.78,0,0,1-1,.28,1.75,1.75,0,0,1-1-.28,1.14,1.14,0,0,1-.42-1,1.12,1.12,0,0,1,.42-1A1.82,1.82,0,0,1,85,18.93Z"/></g></svg>