<svg id="图层_1" data-name="图层 1" xmlns="http://www.w3.org/2000/svg" xmlns:xlink="http://www.w3.org/1999/xlink" viewBox="0 0 140 50"><defs><style>.cls-1{fill:#002fa7;}.cls-2{fill:#fff;}.cls-3{fill:url(#未命名的渐变_2);}.cls-4{fill:url(#未命名的渐变_2-2);}.cls-5{fill:#231815;}</style><linearGradient id="未命名的渐变_2" x1="41.92" y1="21.27" x2="45.05" y2="21.27" gradientUnits="userSpaceOnUse"><stop offset="0" stop-color="#002fa7"/><stop offset="1" stop-color="#fff"/></linearGradient><linearGradient id="未命名的渐变_2-2" x1="34.04" y1="26.06" x2="37.15" y2="26.06" xlink:href="#未命名的渐变_2"/></defs><circle class="cls-1" cx="37.9" cy="25.3" r="14.29"/><path class="cls-2" d="M52.2,25.23,45.07,18.1H38.73l3.17,3.17,9.29,9.3a14.2,14.2,0,0,0,1-5.27Z"/><polygon class="cls-3" points="45.07 24.44 45.07 18.1 41.9 21.27 41.9 21.27 45.07 24.44"/><path class="cls-2" d="M38.73,18.1l-5.45,5.46,3.16,3.16,5.46-5.45,3.17-3.17Z"/><path class="cls-2" d="M30.84,22.89,34,26.06,42,34l3.16-3.17-7.94-7.94Z"/><polygon class="cls-4" points="37.18 29.22 37.18 22.89 34.01 26.05 34.01 26.05 37.18 29.22"/><path class="cls-2" d="M37.18,22.89H30.84l-6.6,6.6a14.33,14.33,0,0,0,2.11,4.23L34,26.06Z"/><path class="cls-5" d="M111.65,23.83h-.47V20.15c0-1.2-.42-1.95-1.28-2.24a2.17,2.17,0,0,0-.69-.11,2.24,2.24,0,0,0-1.86.89c-.09.14-.17.27-.24.4V14.85h-2.68v.37h.85v7.86a.65.65,0,0,1-.65.74h-.2v.38h3.38a.37.37,0,0,0-.37-.38h-.33V20.38a1.74,1.74,0,0,1,.78-1.69,1.08,1.08,0,0,1,.47-.13c.59,0,.91.36,1,1.08a2.11,2.11,0,0,1,0,.26v3.18c0,.39-.06.61-.18.68a.82.82,0,0,1-.39.07v.38H112A.38.38,0,0,0,111.65,23.83Z"/><path class="cls-5" d="M117,22.64c-.19.77-.47,1.2-.85,1.28H116c-.35,0-.57-.25-.65-.75a2,2,0,0,1,0-.36V18.46h1.91v-.37h-1.91V16.42l-1.82.3v1.37h-1v.37h1v3.6c0,1.39.57,2.16,1.72,2.29l.35,0a1.62,1.62,0,0,0,1.53-.72,3.18,3.18,0,0,0,.31-1Z"/><path class="cls-5" d="M104.37,17.9h0a.78.78,0,0,0-.52-.75,1.18,1.18,0,0,0-.5-.1,1.3,1.3,0,0,0-1.17.86c0,.11-.09.22-.13.32a3.1,3.1,0,0,0-1.69-.43,2.82,2.82,0,0,0-2.45,1.06,2.2,2.2,0,0,0-.43,1.33,2.24,2.24,0,0,0,1,1.81,2.94,2.94,0,0,0,.39.26h0a1.16,1.16,0,0,0-1.18.75,1.51,1.51,0,0,0-.12.58,1.45,1.45,0,0,0,.53,1.12,1.37,1.37,0,0,0-.37.88q0,.78,1,1.17a4.85,4.85,0,0,0,1.67.25c1.58,0,2.59-.36,3.06-1.1a1.37,1.37,0,0,0,.21-.72,1.56,1.56,0,0,0-1.58-1.66,2.56,2.56,0,0,0-.39,0l-3-.06a.42.42,0,0,1-.45-.33.25.25,0,0,1,0-.08.36.36,0,0,1,.36-.38h1.65a2.78,2.78,0,0,0,2.39-1.08,2.31,2.31,0,0,0,.46-1.41,2.23,2.23,0,0,0-.79-1.73A.79.79,0,0,1,103,18a.81.81,0,0,1,.46.25.8.8,0,0,0,.21.13.54.54,0,0,0,.22.05.51.51,0,0,0,.17,0h0l.13-.07,0,0A.52.52,0,0,0,104.37,17.9Zm-5.93,7A1.73,1.73,0,0,0,99,25l2.91,0c.56,0,.89.09,1,.26a.48.48,0,0,1,.06.24c0,.46-.45.77-1.34.94a5.93,5.93,0,0,1-1.24.12c-1.17,0-1.87-.26-2.11-.78a.76.76,0,0,1-.08-.32A1.06,1.06,0,0,1,98.44,24.93Zm2.8-3.55a.9.9,0,0,1-.9.9h-.14a.91.91,0,0,1-.9-.9V19.07a.9.9,0,0,1,.9-.9h.14a.9.9,0,0,1,.9.9Z"/><path class="cls-5" d="M63.73,23.82H62V20H64.8v-.43H62V16h1.62a1.69,1.69,0,0,1,1.72,1.35,0,0,0,0,1,0,0l.32,1.06h.41l-.05-2.83h-7.2V16H60v7.86H58.87v.39h4.86Z"/><path class="cls-5" d="M77.69,23.83h-1V20.72c.07-1,.31-1.62.74-1.84.06,0,.29-.14.53.29a1.14,1.14,0,0,0,.56.57,1.07,1.07,0,0,0,.32.05.86.86,0,0,0,.82-.55.91.91,0,0,0,.08-.39.86.86,0,0,0-.7-.91,1.47,1.47,0,0,0-.36,0,2.07,2.07,0,0,0-1.57.71,2.53,2.53,0,0,0-.46.74L76.51,18H74v.38h.83v4.69c0,.43-.17.67-.5.72a1.69,1.69,0,0,1-.33,0v.38h4.07A.37.37,0,0,0,77.69,23.83Z"/><path class="cls-5" d="M86.13,22.72l-.35-.11a2.19,2.19,0,0,1-1.27,1.19,1.89,1.89,0,0,1-.7.13c-.77,0-1.26-.49-1.48-1.47A7.24,7.24,0,0,1,82.18,21l1.33.05c1.54.05,2.44-.2,2.69-.74a1,1,0,0,0,.09-.44A1.87,1.87,0,0,0,85,18.1a4,4,0,0,0-1.6-.3,3.08,3.08,0,0,0-2.53,1.11,3.31,3.31,0,0,0-.69,2.14A3,3,0,0,0,81.78,24a3.61,3.61,0,0,0,1.7.39,2.63,2.63,0,0,0,2.42-1.18A2.38,2.38,0,0,0,86.13,22.72Zm-2.7-4.55c.62,0,.93.55.94,1.57,0,.45-.13.73-.4.84a2.38,2.38,0,0,1-.87.07l-.92,0C82.25,19,82.67,18.2,83.43,18.17Z"/><path class="cls-5" d="M90.3,20.41a5,5,0,0,1-.57-.28q-.87-.43-.87-1.05a1,1,0,0,1,0-.29c.14-.4.52-.6,1.13-.6a1.26,1.26,0,0,1,1.43,1.32h.46v-1.8a.37.37,0,0,0-.37.38v.11a3.28,3.28,0,0,0-1.76-.4,3.77,3.77,0,0,0-1.25.19,1.65,1.65,0,0,0-1.34,1.65,1.47,1.47,0,0,0,.37,1,4.1,4.1,0,0,0,1.43.88c.29.13.51.23.65.31a1.42,1.42,0,0,1,.92,1.22,1.37,1.37,0,0,1,0,.19q-.14.69-1.11.69a1.59,1.59,0,0,1-1.74-1.79h-.49v2.19a.38.38,0,0,0,.39-.39V23.9a4.59,4.59,0,0,0,2.13.45,4.09,4.09,0,0,0,1.2-.17,1.76,1.76,0,0,0,.86-2.85A4.59,4.59,0,0,0,90.3,20.41Z"/><path class="cls-5" d="M96.19,23.83h-.5V18H93v.38h.83v4.69c0,.43-.17.67-.5.72a1.69,1.69,0,0,1-.33,0v.38h3.54A.38.38,0,0,0,96.19,23.83Z"/><path class="cls-1" d="M65.16,27.36h1.15v5.57l-5.08-6H58.79v.39H60v7.86H58.79v.39h3a.4.4,0,0,0-.39-.39h-.84v-6l5.55,6.46h.82V27.36h1.15V27H65.16Z"/><path class="cls-1" d="M73.4,29.51a3.9,3.9,0,0,0-1.6-.31,3.1,3.1,0,0,0-2.54,1.11,3.34,3.34,0,0,0-.69,2.15,3,3,0,0,0,1.57,2.91,3.64,3.64,0,0,0,1.7.39,2.62,2.62,0,0,0,2.42-1.19,2.06,2.06,0,0,0,.23-.44L74.15,34a2.2,2.2,0,0,1-1.27,1.2,2.17,2.17,0,0,1-.71.13c-.77,0-1.26-.49-1.48-1.47a7.31,7.31,0,0,1-.14-1.44l1.32,0c1.55.05,2.44-.19,2.69-.73a1.13,1.13,0,0,0,.09-.45A1.86,1.86,0,0,0,73.4,29.51ZM72.33,32a2.32,2.32,0,0,1-.86.07l-.92,0c.06-1.59.48-2.4,1.25-2.43.61,0,.92.54.93,1.57C72.73,31.6,72.6,31.88,72.33,32Z"/><path class="cls-1" d="M88.89,31.81l-.57-.27c-.58-.29-.87-.64-.87-1.06a.92.92,0,0,1,0-.28c.14-.41.52-.61,1.13-.61a1.26,1.26,0,0,1,1.43,1.33h.46v-1.8a.36.36,0,0,0-.37.37v.12a3.27,3.27,0,0,0-1.76-.41,4,4,0,0,0-1.25.19,1.66,1.66,0,0,0-1.34,1.66,1.51,1.51,0,0,0,.37,1A4.26,4.26,0,0,0,87.6,33a5.11,5.11,0,0,1,.64.3c.62.33.93.73.93,1.22a1.37,1.37,0,0,1,0,.19q-.14.69-1.11.69a1.58,1.58,0,0,1-1.74-1.78h-.49v2.19a.39.39,0,0,0,.39-.39v-.06a4.59,4.59,0,0,0,2.13.45,3.78,3.78,0,0,0,1.2-.18,1.67,1.67,0,0,0,1.29-1.68,1.71,1.71,0,0,0-.43-1.17A4.76,4.76,0,0,0,88.89,31.81Z"/><path class="cls-1" d="M84.47,29.42H83.18v.37h.89L82.73,34l-1.41-4.21h.86v-.37H79.39l.49,1.44L78.93,34l-1.4-4.19h.86v-.37H75.07v.37h.6l1.67,4.84c.2.58.41.91.61,1a1.15,1.15,0,0,0,.36,0h.47l1.34-4.16,1.07,3.11a2.34,2.34,0,0,0,.47.95.83.83,0,0,0,.45.1h.47l1.8-5.47a.57.57,0,0,1,.48-.42h0a.37.37,0,0,0,.36-.37h-.75Z"/><circle class="cls-5" cx="94.75" cy="16.11" r="1.07"/><path class="cls-5" d="M72.13,18.48A3.32,3.32,0,0,0,70,17.8,3.25,3.25,0,0,0,67.29,19a3.34,3.34,0,0,0,5.26,4.12A3.38,3.38,0,0,0,73.27,21,3,3,0,0,0,72.13,18.48Zm-.84,4.28A1.25,1.25,0,0,1,70,24h-.17a1.26,1.26,0,0,1-1.26-1.26v-3.3a1.27,1.27,0,0,1,1.26-1.26H70a1.26,1.26,0,0,1,1.26,1.26Z"/></svg>