<svg id="图层_1" data-name="图层 1" xmlns="http://www.w3.org/2000/svg" xmlns:xlink="http://www.w3.org/1999/xlink" viewBox="0 0 140 50"><defs><style>.cls-1{fill:#1f4b9f;}.cls-2{fill:#f29600;}.cls-3{fill:#e95615;}.cls-4{clip-path:url(#clip-path);}.cls-5{clip-path:url(#clip-path-2);}</style><clipPath id="clip-path"><path id="SVGID" class="cls-1" d="M60.94,18.63h2.5l6,14.38H66l-1.18-3H59.48l-1.14,3H55Zm1.16,4.19-1.67,4.46h3.36Z"/></clipPath><clipPath id="clip-path-2"><path id="SVGID-2" data-name="SVGID" class="cls-1" d="M52.39,18.65H49l-.39,2.72h3.72a1.72,1.72,0,0,1,0,3.43H48.11l-.37,2.6h4.41l.24,0a4.39,4.39,0,0,0,0-8.78Z"/></clipPath></defs><path class="cls-1" d="M36.25,32.85l-4.86-2.21s0-9.83,0-9.87a3.08,3.08,0,1,0-6.16,0v7.07l-4.69-2.13s0-4.92,0-5.07A8.06,8.06,0,0,1,28.4,12.4a8.06,8.06,0,0,1,7.86,8.24C36.26,20.76,36.25,32.85,36.25,32.85Z"/><path class="cls-2" d="M34,35.56a1.69,1.69,0,0,1-.43-.15l-13-6.63c-.48-.25-.62-.67-.31-1a1.41,1.41,0,0,1,1.43,0l13,6.64c.47.25.61.67.31.94A1.23,1.23,0,0,1,34,35.56Z"/><path class="cls-1" d="M29.11,36.37a2.25,2.25,0,0,1-.44-.14l-9.67-5c-.47-.25-.61-.67-.31-.94a1.39,1.39,0,0,1,1.43-.06l9.67,5c.48.25.62.67.31.94A1.2,1.2,0,0,1,29.11,36.37Z"/><path class="cls-3" d="M27.3,38.78a1.28,1.28,0,0,1-.43-.14l-6.23-3.19c-.48-.25-.61-.67-.31-.94a1.39,1.39,0,0,1,1.43-.06L28,37.65c.48.24.62.66.31.94A1.23,1.23,0,0,1,27.3,38.78Z"/><path class="cls-1" d="M21.44,39.12A1.55,1.55,0,0,1,21,39L18.9,37.9c-.48-.25-.62-.67-.31-.94A1.37,1.37,0,0,1,20,36.9L22.12,38c.48.25.62.67.31,1A1.23,1.23,0,0,1,21.44,39.12Z"/><path class="cls-1" d="M63.44,18.63h-2.5l-1.51,3.66-.84,2L55,33h3.34L59.48,30h5.34l.18.47,2.36-2.36Zm-3,8.66,1.67-4.47,1.69,4.47Z"/><path id="SVGID-3" data-name="SVGID" class="cls-1" d="M60.94,18.63h2.5l6,14.38H66l-1.18-3H59.48l-1.14,3H55Zm1.16,4.19-1.67,4.46h3.36Z"/><g class="cls-4"><polygon class="cls-1" points="74.66 15.76 50.88 40.66 52.77 42.64 76.56 17.74 74.66 15.76"/><polygon class="cls-1" points="76.52 17.7 52.74 42.6 54.63 44.58 78.41 19.68 76.52 17.7"/><polygon class="cls-1" points="78.37 19.64 54.59 44.54 56.48 46.52 80.27 21.62 78.37 19.64"/></g><path class="cls-1" d="M70.63,18.59h4.12l5.86,10h0v-10h3V33h-4l-6-10.26h0V33h-3Z"/><path class="cls-1" d="M94.74,31.32A4.56,4.56,0,0,1,93,32.75a5,5,0,0,1-2.19.5,5.71,5.71,0,0,1-2-.36A4.72,4.72,0,0,1,86,30.24,5.63,5.63,0,0,1,86,26a4.78,4.78,0,0,1,2.75-2.66,5.71,5.71,0,0,1,2-.36,4.43,4.43,0,0,1,1.81.36,3.77,3.77,0,0,1,1.39,1A5,5,0,0,1,94.88,26a6.93,6.93,0,0,1,.31,2.11v.94H88.5a2.46,2.46,0,0,0,.75,1.38,2.28,2.28,0,0,0,2.62.18,3.31,3.31,0,0,0,.86-.85ZM92.31,27a1.8,1.8,0,0,0-.48-1.3,1.67,1.67,0,0,0-1.29-.55,2.26,2.26,0,0,0-.85.16,2.12,2.12,0,0,0-.62.42,1.67,1.67,0,0,0-.4.58,2.06,2.06,0,0,0-.17.69Z"/><path class="cls-1" d="M95.82,23.24h3.07l1.9,6.13h0l1.59-6.13h3.15l1.73,6.13h0l1.75-6.13H112L108.68,33h-2.84l-1.94-6.49h0L102.14,33h-2.9Z"/><path class="cls-1" d="M118.21,26.12a2,2,0,0,0-1.67-.83,1.5,1.5,0,0,0-.71.18.65.65,0,0,0-.35.63.55.55,0,0,0,.36.53,4.71,4.71,0,0,0,.9.3l1.17.28a4,4,0,0,1,1.17.48,2.5,2.5,0,0,1,.9.87,2.68,2.68,0,0,1,.36,1.48,2.81,2.81,0,0,1-.39,1.55,3.18,3.18,0,0,1-1,1,4.16,4.16,0,0,1-1.38.52,8,8,0,0,1-1.52.15,6.88,6.88,0,0,1-2-.29,3.64,3.64,0,0,1-1.69-1l1.75-2a3,3,0,0,0,.89.79,2.34,2.34,0,0,0,1.14.27,2.59,2.59,0,0,0,.91-.15.55.55,0,0,0,.4-.55.6.6,0,0,0-.36-.57,3.56,3.56,0,0,0-.9-.33L115,29.08a4.58,4.58,0,0,1-1.17-.45,2.44,2.44,0,0,1-.9-.85,2.7,2.7,0,0,1-.36-1.48,3,3,0,0,1,.34-1.49,3,3,0,0,1,.88-1,3.77,3.77,0,0,1,1.26-.6,5.37,5.37,0,0,1,1.44-.19,6.77,6.77,0,0,1,1.86.28,3.43,3.43,0,0,1,1.59,1Z"/><polygon class="cls-1" points="47.21 24.81 47.21 21.37 47.21 18.65 44.24 18.65 44.24 33.05 47.21 33.05 47.21 31.15 47.21 27.41 47.21 24.81"/><path class="cls-1" d="M48.56,24.81h1.92l-2.62,2.62h-.12l.37-2.6h.45Z"/><path class="cls-1" d="M48.6,21.37,49,18.66h3.4a4.06,4.06,0,0,1,3,1.28l-1.9,1.9a1.57,1.57,0,0,0-1.12-.47Z"/><path id="SVGID-4" data-name="SVGID" class="cls-1" d="M52.39,18.65H49l-.39,2.72h3.72a1.72,1.72,0,0,1,0,3.43H48.11l-.37,2.6h4.41l.24,0a4.39,4.39,0,0,0,0-8.78Z"/><g class="cls-5"><polygon class="cls-1" points="61.95 9.01 40.57 31.4 42.27 33.18 63.66 10.79 61.95 9.01"/><polygon class="cls-1" points="63.62 10.75 42.23 33.14 43.94 34.93 65.33 12.53 63.62 10.75"/><polygon class="cls-1" points="65.29 12.5 43.9 34.89 45.6 36.67 66.99 14.28 65.29 12.5"/></g><path class="cls-3" d="M56.55,22.54h0l-4.87,4.87H47.86l2.62-2.62h1.84A1.68,1.68,0,0,0,54,23.09a1.74,1.74,0,0,0-.52-1.25l1.9-1.9h0A4.46,4.46,0,0,1,56.55,22.54Z"/><path class="cls-2" d="M56.58,23a4.29,4.29,0,0,1-4.19,4.39h-.71l4.87-4.87A3.91,3.91,0,0,1,56.58,23Z"/><polygon class="cls-3" points="68.48 30.77 68.48 30.78 66.24 33.02 66 33.02 65 30.44 67.36 28.08 68.48 30.77"/><polygon class="cls-2" points="69.41 33.02 66.24 33.02 68.48 30.78 69.41 33.02"/></svg>