<svg id="图层_1" data-name="图层 1" xmlns="http://www.w3.org/2000/svg" xmlns:xlink="http://www.w3.org/1999/xlink" viewBox="0 0 140 50"><defs><style>.cls-1{fill:#172b83;}.cls-2{fill:url(#未命名的渐变_89);}</style><linearGradient id="未命名的渐变_89" x1="54.67" y1="15.68" x2="54.67" y2="19.45" gradientUnits="userSpaceOnUse"><stop offset="0" stop-color="#d87820"/><stop offset="1" stop-color="#d91a25"/></linearGradient></defs><path class="cls-1" d="M37.24,30.82c-.51.53-1,1.07-1.48,1.55s-1.14,1-1.74,1.49a15.16,15.16,0,0,1-2.74,1.71.56.56,0,0,1-.4,0,1.43,1.43,0,0,1-.9-1,.42.42,0,0,1,.18-.48c.42-.33.84-.65,1.23-1s.85-.83,1.25-1.27a17.62,17.62,0,0,0,2.5-3.61l0-.12H32.33c-.48,0-.61-.12-.69-.59s-.11-.67-.16-1a1.43,1.43,0,0,1,0-.36.24.24,0,0,1,.27-.19c1.74,0,3.47,0,5.21,0h.24a1.5,1.5,0,0,0,0-.2V23.41c0-.35.09-.46.44-.46h2.64c.27,0,.31.06.31.32V26h1.23c.6,0,1.21,0,1.82,0a.47.47,0,0,0,.45-.27A8.5,8.5,0,0,1,44.7,25c.09-.13.21-.12.34,0l2,1.46a.3.3,0,0,1,.08.44c-.22.37-.44.73-.67,1.09a.61.61,0,0,1-.57.22H41.45a5.78,5.78,0,0,0,.42.43,13.81,13.81,0,0,0,2.45,1.78c.7.39,1.44.73,2.17,1.08.41.19.84.35,1.25.53s.34.33.09.57A15.66,15.66,0,0,0,45.73,35c-.17.23-.24.26-.47.1a17.47,17.47,0,0,1-4.45-4.42c-.05-.07-.09-.14-.16-.23a.76.76,0,0,0,0,.14c0,2,0,4,0,6a1,1,0,0,1-.15.47.38.38,0,0,1-.28.17H37.56c-.19,0-.29-.16-.32-.46V30.82Z"/><path class="cls-1" d="M44,18.09H34.2c0,.46-.07.92-.09,1.37s-.21.6-.57.59C33,20,32.35,20,31.76,20a3.21,3.21,0,0,1-.62-.1.35.35,0,0,1-.27-.53,2.55,2.55,0,0,1,.29-.57,13.06,13.06,0,0,0,1.38-3.07c.2-.6.24-.62.88-.54h.07c.51.06.56.11.66.61a.17.17,0,0,0,.2.17h9.36a.42.42,0,0,0,.4-.22c.14-.24.3-.46.46-.69s.21-.24.42-.08l2.19,1.69c.12.1.24.19.35.3a.18.18,0,0,1,0,.32,4,4,0,0,1-.42.3,2.76,2.76,0,0,0-1,1.08c-.34.56-.7,1.1-1,1.65-.18.28-.29.32-.62.25l-.73-.18c-.21-.06-.25-.13-.2-.34.14-.57.29-1.13.43-1.7C43.92,18.24,43.93,18.16,44,18.09Z"/><path class="cls-1" d="M27.33,36.84c-.25,0-.52,0-.78-.09A.63.63,0,0,1,26,36c.06-.47.14-.93.21-1.4s.2-1.24.29-1.86c0-.15,0-.3.05-.46a.64.64,0,0,0-.35-.66,2.74,2.74,0,0,0-.84-.26c-.55-.08-.57-.07-.67-.56a3.61,3.61,0,0,1,0-.87c0-.27.22-.36.49-.33a1.83,1.83,0,0,0,2-1l2.29-4.86c.08-.15.16-.25.34-.21a1.28,1.28,0,0,1,.35.07,8.45,8.45,0,0,1,.95.6.51.51,0,0,1,.11.6c-.25.76-.5,1.53-.74,2.29-.36,1.12-.75,2.24-1.08,3.36a7,7,0,0,0-.19,3c.11.77.25,1.54.36,2.31.09.61-.2.92-.81.95S27.83,36.8,27.33,36.84Z"/><path class="cls-1" d="M45.45,22.17a4.09,4.09,0,0,1-.12.41,8.46,8.46,0,0,1-1.3,2.1.37.37,0,0,1-.64,0,11.17,11.17,0,0,1-.83-1.09,27.35,27.35,0,0,0-2.39-3,2,2,0,0,1-.19-.22.38.38,0,0,1,0-.5,8.21,8.21,0,0,1,.59-.59.3.3,0,0,1,.37-.05c.86.45,1.73.89,2.59,1.35.51.28,1,.6,1.52.89A.72.72,0,0,1,45.45,22.17Z"/><path class="cls-1" d="M32.92,24.65a2.38,2.38,0,0,1-.45-.23A4,4,0,0,1,32,24c-.18-.19-.18-.24,0-.43l.6-.64a16.71,16.71,0,0,0,2.49-3.63.52.52,0,0,1,.83-.21l1.7,1c.32.2.35.41.1.69a18.44,18.44,0,0,1-4.13,3.49A1.34,1.34,0,0,1,32.92,24.65Z"/><path class="cls-1" d="M27.85,24.93a1,1,0,0,1-.27-.19c-.41-.48-.8-1-1.21-1.46s-.81-.85-1.22-1.27a.6.6,0,0,1-.07-.87c.15-.19.3-.37.44-.56a.56.56,0,0,1,.69-.21c1,.38,2,.77,3,1.17a.54.54,0,0,1,.34.72,8.34,8.34,0,0,1-1,2.33A.77.77,0,0,1,27.85,24.93Z"/><path class="cls-1" d="M30.57,16.85a5.86,5.86,0,0,1-.24.78c-.19.45-.43.88-.64,1.32l0,.05c-.32.46-.65.47-1,0a14.81,14.81,0,0,0-2.19-2.35l-.23-.21c-.25-.2-.3-.38-.11-.64a6.78,6.78,0,0,1,.68-.74.37.37,0,0,1,.31-.06c1,.36,2,.72,3,1.1C30.47,16.23,30.57,16.42,30.57,16.85Z"/><path class="cls-2" d="M54.67,15.68a1.89,1.89,0,0,1,1.89,1.88,1.89,1.89,0,1,1-3.78,0A1.88,1.88,0,0,1,54.67,15.68Z"/><path class="cls-1" d="M58.18,23.2V21a.49.49,0,0,1,0-.21c0-.06.1-.14.15-.14h2.36l0,.25h0V19.29H58.41a.23.23,0,0,1-.26-.21l-.3-1.41a.17.17,0,0,1,.16-.22h2.77V17.2c0-.8,0-1.59,0-2.39,0-.27.08-.36.35-.36h1.92c.28,0,.34.05.34.32,0,.89,0,1.77,0,2.65a.55.55,0,0,0,.69-.26,4.24,4.24,0,0,1,.31-.4c.11-.15.24-.13.37,0l1.16.9c.16.11.31.23.46.35a.37.37,0,0,1,.12.53c-.14.23-.28.46-.44.68a.41.41,0,0,1-.27.1H63.46V21c.22-.29.42-.54.62-.78,0,0,.14-.08.18-.05.76.47,1.52,1,2.27,1.44l.06.06c-.13.19-.24.38-.38.57a1,1,0,0,0-.21.62c0,1.87,0,3.74,0,5.61V29H63.69c-.13,0-.24,0-.24-.18v1.71c.22,0,.42,0,.63,0a.32.32,0,0,0,.18-.11c.23-.24.44-.49.68-.75L66.67,31c0-.35.11-.67.13-1,.08-1.05.16-2.11.22-3.16,0-.44,0-.88,0-1.32V15.67h2.62v.64h1.48a.38.38,0,0,0,.24-.14c.19-.24.36-.49.55-.72s.29-.25.53-.11l2.41,1.53a.22.22,0,0,1,.07.36l-.38.55a1.3,1.3,0,0,0-.28.85c0,1,0,2,0,3,0,1.64,0,3.28,0,4.91q0,3.93,0,7.84v.89a1.44,1.44,0,0,1-.68,1.16A3.59,3.59,0,0,1,72,37l-1,.12c-.21,0-.28,0-.3-.23a1.43,1.43,0,0,0-1.22-1.37c-.35-.09-.43-.2-.45-.57,0-.57,0-.61.59-.62l1.22,0a.51.51,0,0,0,.52-.53c0-1.34,0-2.67,0-4,0-.05,0-.09,0-.14l-.56-.07a2.28,2.28,0,0,1-.87-.46.48.48,0,0,0-.34-.09c-.07,0-.14.17-.15.28a14.36,14.36,0,0,1-1.18,4.21,13.89,13.89,0,0,1-2.17,3.34.46.46,0,0,1-.66.14c-.22-.1-.44-.21-.67-.29a.23.23,0,0,1-.15-.31,4,4,0,0,1,.27-.55,15.62,15.62,0,0,0,1.39-3.38H63.43c0,.1,0,.2,0,.29,0,1.3,0,2.59,0,3.88a1.93,1.93,0,0,1,0,.24c0,.31-.08.37-.38.37H61.24c-.32,0-.44-.12-.45-.44a1.34,1.34,0,0,1,0-.2V32.41h-3l-.41-1.87h3.36v-1.8l-.05.08c0,.27,0,.27-.29.27h-2c-.17,0-.23-.05-.23-.23,0-1.35,0-2.69,0-4.05-.08.32-.17.63-.25.95-.34,1.32-.69,2.63-1,3.95a9,9,0,0,0-.19,2.73,24.29,24.29,0,0,0,.46,3.06c.09.47,0,.83-.62,1a7.27,7.27,0,0,1-2.12.28c-.57,0-.74-.21-.67-.77L54.15,33c0-.38.12-.75.14-1.13a1,1,0,0,0-.53-.93,2.38,2.38,0,0,0-1-.31.44.44,0,0,1-.48-.48c0-.24-.06-.47-.08-.7s0-.31.29-.31a10.44,10.44,0,0,0,1.12,0,4.71,4.71,0,0,0,1-.21.57.57,0,0,0,.28-.27,32,32,0,0,0,2.06-5.34c.09-.31.12-.33.43-.26Zm13.18-5H69.7v3.53a1.48,1.48,0,0,1,1,.25,1.12,1.12,0,0,0,.24.13c.28.11.4,0,.4-.26,0-1.12,0-2.24,0-3.35C71.38,18.44,71.37,18.34,71.36,18.24Zm-1.7,8.59a1.35,1.35,0,0,1,1.09.34,1.57,1.57,0,0,0,.33.19c.21.09.3,0,.3-.21V24.23s0-.08,0-.14a5,5,0,0,1-.55,0,1.7,1.7,0,0,1-.82-.37.3.3,0,0,0-.26,0s-.08.13-.08.21v2.95Zm-8.94-4.16v.74c0,.11,0,.16.16.17a2.76,2.76,0,0,1,.7.11c.44.16.87.37,1.3.56.18.08.37.14.58.22v-1.8Zm2.74,3.69c-.44-.12-.86-.23-1.27-.38s-.53-.27-.81-.4a1,1,0,0,0-.64-.15V27h2.72Z"/><path class="cls-1" d="M52.79,21l.92.28a9.09,9.09,0,0,1,1.87.87l.34.19c.25.11.31.24.26.54a4.85,4.85,0,0,1-.84,2.05c-.34.47-.54.5-.92.06-.5-.6-1-1.21-1.49-1.8-.27-.31-.56-.59-.84-.89a1.43,1.43,0,0,1-.2-.3.26.26,0,0,1,0-.23,8,8,0,0,1,.62-.69C52.57,21,52.68,21,52.79,21Z"/><path class="cls-1" d="M86.87,17.17l-1.6,2H82.89v5.89H80.42V19.22H77.15l1.58-2Z"/><path class="cls-1" d="M95.66,23.06l-1.58,2.05H87V17.17h8.63l-1.58,2H89.5v.85h5.78l-1.59,2.05H89.5v.94Z"/><path class="cls-1" d="M106.09,23.06l-1.59,2.05h-4A5.12,5.12,0,0,1,97.08,24a3.62,3.62,0,0,1-1.36-2.89,3.46,3.46,0,0,1,1.34-2.82,5.35,5.35,0,0,1,3.45-1.08h5.58l-1.58,2h-4a2.56,2.56,0,0,0-1.67.54,1.74,1.74,0,0,0-.66,1.4,1.67,1.67,0,0,0,.66,1.37,2.55,2.55,0,0,0,1.67.53Z"/><path class="cls-1" d="M116.65,25.11h-2.47v-3h-4.72v3H107V17.17h2.46v2.92h4.72V17.17h2.47Z"/><path class="cls-1" d="M86.15,28.47l-1.4,1.81h-4V31h5.11l-1.4,1.82H80.7V35.5H78.52v-7Z"/><path class="cls-1" d="M93.77,33.68,92.35,35.5H86.14v-7h2.19v5.21Z"/><path class="cls-1" d="M104,31.92a3.22,3.22,0,0,1-1.2,2.56,4.56,4.56,0,0,1-3,1H97.66a4.55,4.55,0,0,1-3-1,3.23,3.23,0,0,1-1.21-2.56,3,3,0,0,1,1.2-2.5,4.76,4.76,0,0,1,3.06-1h2.11a4.75,4.75,0,0,1,3,1A3.07,3.07,0,0,1,104,31.92Zm-4.24-1.64H97.66a2.23,2.23,0,0,0-1.49.49A1.52,1.52,0,0,0,95.59,32a1.48,1.48,0,0,0,.58,1.22,2.32,2.32,0,0,0,1.49.46h2.11a2.31,2.31,0,0,0,1.49-.46,1.49,1.49,0,0,0,.59-1.22,1.52,1.52,0,0,0-.59-1.23A2.23,2.23,0,0,0,99.77,30.28Z"/><path class="cls-1" d="M117.15,28.47l-1.82,6.24a1.21,1.21,0,0,1-.44.62,1.32,1.32,0,0,1-.81.27,1.44,1.44,0,0,1-1.2-.81l-2.14-3.5-2.16,3.5a1.41,1.41,0,0,1-1.19.81,1.23,1.23,0,0,1-.79-.26,1.2,1.2,0,0,1-.45-.63l-1.83-6.24h2.39l.93,3.71,2-3.17a1.21,1.21,0,0,1,1.07-.62,1.42,1.42,0,0,1,.69.18,1.34,1.34,0,0,1,.5.44l2,3.17.91-3.71Z"/></svg>