<svg id="图层_1" data-name="图层 1" xmlns="http://www.w3.org/2000/svg" viewBox="0 0 140 50"><defs><style>.cls-1{fill:#0c7eef;}.cls-2{fill:#fe7f02;}</style></defs><path class="cls-1" d="M17.18,32.08a10,10,0,0,0,6.74,4.2,10.46,10.46,0,0,0,12-8,9,9,0,0,0,.24-1.71,1,1,0,0,1,.49-.88c.58-.42,1.13-.87,1.76-1.36a11.09,11.09,0,0,1-.11,4.07A12.84,12.84,0,1,1,23.49,13.3a12.45,12.45,0,0,1,11,3.26c.4.36.36.55-.06.82a8.51,8.51,0,0,0-1.07.83c-.24.22-.39.17-.62,0a10.36,10.36,0,0,0-7-2.74,10.55,10.55,0,0,0-10.23,8,9.53,9.53,0,0,0,0,4.86A8.8,8.8,0,0,0,17.18,32.08Z"/><path class="cls-2" d="M17.18,32.08a8.8,8.8,0,0,1-1.74-3.83l6.84-5.32a.58.58,0,0,1,.83,0c1.16.82,2.36,1.58,3.52,2.41a.55.55,0,0,0,.79,0l8.32-6.49a1.26,1.26,0,0,1,.83-.29h5.94c0,.23-.15.27-.25.35L27.59,30.29a.54.54,0,0,1-.78,0c-1.18-.83-2.39-1.61-3.57-2.44a.52.52,0,0,0-.74,0C20.73,29.31,19,30.69,17.18,32.08Z"/><path class="cls-1" d="M55.59,27.13l-3.31,4.54c-.66.9-1.33,1.8-2,2.71a.57.57,0,0,1-.53.29c-.86,0-1.73,0-2.6,0,0-.25.15-.37.26-.52q3.15-4.33,6.32-8.65a1.56,1.56,0,0,0,.33-1c0-2.22,0-4.44,0-6.66,0-.49.15-.61.61-.58a15.86,15.86,0,0,0,1.95,0c.41,0,.52.1.52.51,0,2.27,0,4.55,0,6.82a1.42,1.42,0,0,0,.29.89c2.17,2.95,4.32,5.91,6.48,8.87a3.77,3.77,0,0,1,.24.35c-1,0-1.95,0-2.89,0-.22,0-.28-.22-.38-.35L56,27.63Z"/><path class="cls-1" d="M68,28.28c.49-1,1-2,1.4-2.93.08-.16.2-.18.36-.18h2.18c-.28.59-.52,1.13-.78,1.66-.14.27-.11.37.22.37,1.1,0,2.2,0,3.3,0,.36,0,.43-.14.41-.44s0-.83,0-1.25c0-.26.09-.35.35-.34h2.27c.24,0,.32.08.32.31a11.76,11.76,0,0,1,0,1.19c0,.46.15.54.56.53,2,0,4,0,5.95,0,.41,0,.6,0,.61.53s-.2.57-.63.57c-2,0-3.94,0-5.9,0-.5,0-.64.15-.58.61a5.91,5.91,0,0,1,0,1c0,.38.11.48.48.48,2,0,4,0,6.07,0,.47,0,.55.15.56.58s-.17.52-.57.52c-2,0-4,0-6.06,0-.38,0-.52.11-.48.49s-.23,1.22.12,1.56,1,.08,1.52.09c1.66,0,3.32,0,5,0,.45,0,.49.19.48.55s0,.56-.46.56q-8.1,0-16.2,0c-.51,0-.41-.29-.43-.58s0-.53.43-.53c2,0,4,0,6.07,0,.43,0,.63-.08.57-.55s.22-1.18-.12-1.5-1-.08-1.46-.08c-1.68,0-3.36,0-5,0-.49,0-.44-.25-.45-.57s0-.55.47-.54c2,0,4.08,0,6.12,0,.37,0,.52-.09.48-.48s.21-1.19-.09-1.51-1-.1-1.5-.11C71.68,28.27,69.87,28.28,68,28.28Z"/><path class="cls-1" d="M80.46,18.34l-9.09,0c-.26,0-.35.07-.35.34,0,1.42,0,2.85,0,4.27,0,.27.07.38.36.38q5.15,0,10.29,0c.3,0,.37-.12.36-.39,0-.88,0-1.77,0-2.65a.9.9,0,0,1,.55-1c.83-.42,1.62-.91,2.51-1.43v2.84c0,.84,0,1.69,0,2.54s-.36,1.15-1.16,1.15H68.48c-.37,0-.49-.09-.48-.48,0-2.07,0-4.15,0-6.22,0-.27,0-.47.38-.47q7,0,13.92,0h.1A9.47,9.47,0,0,1,80.46,18.34Z"/><path class="cls-1" d="M93.4,29.33l-1.56,4.06c-.48,1.28-.48,1.28-1.87,1.28H89c-.07-.23.06-.39.13-.57q1.47-3.88,3-7.77a2.32,2.32,0,0,0,.18-.94c0-1.77,0-3.54,0-5.31,0-.38.1-.5.48-.47a8.89,8.89,0,0,0,1.46,0c.44,0,.5.15.5.53,0,1.77,0,3.53,0,5.3a2.46,2.46,0,0,0,.16.89c1,2.62,2,5.25,3,7.86.17.44.08.52-.35.49-.63,0-1.37.18-1.85-.09s-.52-1.1-.76-1.68c-.47-1.18-.92-2.38-1.38-3.57Z"/><path class="cls-1" d="M88.92,22.13c0-1.48,0-3,0-4.44,0-.39.12-.47.48-.47,2.73,0,5.45,0,8.18,0,.34,0,.46.07.46.44,0,2.76,0,5.52,0,8.28,0,.75-.34,1.08-1.09,1.1-1.34,0-1.34,0-1.34-1.29,0-2.26,0-4.51,0-6.76,0-.47-.13-.57-.57-.56q-1.55,0-3.09,0c-.46,0-.61.09-.6.58,0,2.49,0,5,0,7.47,0,.44-.11.61-.57.57a10.16,10.16,0,0,0-1.46,0c-.34,0-.42-.1-.42-.43C88.93,25.12,88.92,23.63,88.92,22.13Z"/><path class="cls-1" d="M100.77,19.31c-.6,0-1.19,0-1.79,0-.39,0-.32-.22-.33-.45s0-.45.35-.45c1.13,0,2.27,0,3.41,0,.42,0,.56-.12.48-.51-.1-.57.13-.78.69-.7a5.48,5.48,0,0,0,.81,0c.87,0,.87,0,1,.87,0,.18,0,.34.26.32.42-.05.33.24.35.48s0,.44-.37.41-.23.26-.23.43c0,1.38,0,2.75,0,4.12v9.57c0,1-.23,1.24-1.24,1.24-.47,0-.94,0-1.4,0-.26,0-.45,0-.41-.34s-.14-.56.31-.53.29-.23.29-.43c0-1.37,0-2.74,0-4.11,0-3.14,0-6.28,0-9.41,0-.47-.14-.59-.57-.55S101.29,19.31,100.77,19.31Z"/><path class="cls-1" d="M121,34.67c-1.64,0-3.28,0-4.92,0-.31,0-.55,0-.55-.43s.19-.45.52-.45c1,0,2,0,3,0,.34,0,.43-.11.43-.43q0-3.63,0-7.26c0-.34-.12-.42-.44-.41-1,0-2,0-3,0-.35,0-.51-.06-.51-.46s.15-.44.48-.44H126c.34,0,.47.07.46.44s-.07.47-.44.46c-1,0-2,0-3,0-.37,0-.45.12-.45.46,0,2.4,0,4.8,0,7.2,0,.37.12.45.46.45,1,0,2,0,3,0,.34,0,.43.09.43.42s-.08.47-.45.46C124.33,34.66,122.69,34.67,121,34.67Z"/><path class="cls-1" d="M99.61,34.67c-1.27,0-1.28,0-1.14-1.19.52-4.31,1.07-8.62,1.58-12.93,0-.35.15-.46.5-.45.54,0,1.08,0,1.62,0,.29,0,.42,0,.38.38q-.75,5.88-1.46,11.75c-.08.65-.19,1.29-.23,1.93,0,.41-.15.55-.55.5A5.45,5.45,0,0,0,99.61,34.67Z"/><path class="cls-1" d="M115.68,24l7.67-5.83h-.65c-2.2,0-4.41,0-6.61,0-.33,0-.52,0-.52-.44s.19-.46.52-.45h9.75c.19,0,.5-.15.54.15s.15.66-.22.93c-1.09.79-2.15,1.64-3.24,2.44-.33.24-.34.35,0,.6,1,.74,2,1.51,3,2.28.13.1.32.17.4.41h-2.76a.82.82,0,0,1-.47-.24c-.6-.46-1.21-.9-1.81-1.38a.38.38,0,0,0-.6,0l-.08.06A4.83,4.83,0,0,1,115.68,24Z"/><path class="cls-1" d="M109.36,28.31,111.9,23h-2.4l1.26-2.64c.43-.91.87-1.81,1.29-2.73a.56.56,0,0,1,.61-.39c.51,0,1,0,1.52,0s.51.06.31.46c-.71,1.44-1.38,2.89-2.08,4.34-.26.54-.26.54.36.54h1.78c-.31.66-.58,1.25-.87,1.85-.41.87-.83,1.76-1.26,2.62-.17.33-.08.4.25.39.52,0,1,0,1.57,0,.29,0,.34.14.31.37s.14.52-.26.52Z"/><path class="cls-1" d="M47.55,22.18c0-1.05,0-2.1,0-3.14,0-.36.06-.52.46-.5.74,0,1.48,0,2.22,0,.29,0,.37.09.37.37q0,3.33,0,6.66c0,.24,0,.37-.31.36H47.88c-.32,0-.34-.15-.34-.4C47.55,24.41,47.55,23.29,47.55,22.18Z"/><path class="cls-1" d="M60.62,22.18c0-1.08,0-2.16,0-3.25,0-.3.08-.4.39-.39q1.14,0,2.28,0c.27,0,.37.07.37.37q0,3.32,0,6.65c0,.29-.09.38-.37.37-.76,0-1.52,0-2.28,0-.3,0-.4-.09-.39-.4C60.63,24.42,60.62,23.3,60.62,22.18Z"/><path class="cls-2" d="M80.46,18.34a9.47,9.47,0,0,0,1.94-1.09h2.45L81,19.49c-1.33.77-2.66,1.52-4,2.32a.8.8,0,0,1-1,0c-.5-.33-1-.58-1.54-.91a.68.68,0,0,0-.87,0c-.63.4-1.29.75-2,1.17,0-.46,0-.83,0-1.21,0-.2.12-.28.26-.36.66-.38,1.32-.75,2-1.15a.45.45,0,0,1,.54,0c.61.37,1.24.72,1.86,1.09.18.1.32.18.54.05Z"/><path class="cls-1" d="M109.66,34.67c.64-1.37,1.32-2.6,1.81-3.91a1.72,1.72,0,0,1,2.08-1.28c1,.11,1,0,.58.95-.55,1.15-1.12,2.3-1.64,3.46a1.17,1.17,0,0,1-1.27.78C110.74,34.64,110.25,34.67,109.66,34.67Z"/></svg>