<svg id="图层_1" data-name="图层 1" xmlns="http://www.w3.org/2000/svg" viewBox="0 0 140 50"><defs><style>.cls-1{fill:#002fa5;}</style></defs><path class="cls-1" d="M46.14,17.24l-.6,3.37c-.11.69-.11.69-.78.69-3.81,0-7.61,0-11.41,0-.44,0-.63.1-.72.58-.91,5.26-1.85,10.51-2.78,15.77-.14.78-.13.78-.94.78H26.36c-.58,0-.59,0-.5-.56L27,31.29c.56-3.18,1.12-6.36,1.7-9.54.07-.39-.09-.45-.42-.45H21.88c-.58,0-.6,0-.49-.6l.6-3.46Z"/><path class="cls-1" d="M85,17.24q-.61,3.39-1.21,6.78c-.13.71-.12.71-.86.71H79.76a1.26,1.26,0,0,0-.39,0,.49.49,0,0,0-.34.42c0,.23.25.12.39.13,1,0,2.11,0,3.17,0,.12,0,.29,0,.36.09s-.08.24-.15.34l-1,1.36c-.18.24-.12.33.17.33h.88c.26,0,.36.12.3.39-.09.44-.16.89-.23,1.34a.46.46,0,0,1-.55.47c-.42,0-.85,0-1.28,0a.39.39,0,0,0-.45.4c-.15,1-.35,1.9-.5,2.86a.45.45,0,0,1-.52.44c-1,0-1.94,0-2.91,0-.36,0-.48-.13-.41-.48s.18-.91.26-1.38a.36.36,0,0,1,.41-.35h.26c1.26,0,1,.18,1.24-1.05.06-.31,0-.44-.36-.44H75.39c-.61,0-.63,0-.53-.62,0-.36.13-.72.18-1.08a.49.49,0,0,1,.59-.49c1,0,1.93,0,2.9,0a1.33,1.33,0,0,0,.4,0c.21-.08.41-.27.39-.47s-.28-.09-.43-.09H75.72c-.12,0-.27,0-.33-.07s0-.24.13-.34l1.28-1.7H76c-.22,0-.32-.11-.28-.33l1.26-7a.31.31,0,0,1,0-.12Zm-6.22,2.87H79a.73.73,0,0,0,.78-.92c0-.11-.07-.16-.17-.16H78.38c-.12,0-.18.07-.22.18-.29.68-.15.89.57.89Zm-.48,2.82h.18a.72.72,0,0,0,.75-.92c0-.08,0-.15-.13-.15H77.83c-.09,0-.13.1-.17.18-.3.66-.16.89.56.89Zm3.82-2.82a1.62,1.62,0,0,0,.22,0,.68.68,0,0,0,.69-.9c0-.11-.09-.18-.2-.18h-1.1c-.13,0-.19.08-.24.2-.28.72-.17.88.59.88Zm-.28,1.72c-.84,0-1,.1-1,.79,0,.19.06.31.27.31h1c.11,0,.22,0,.25-.14a1.36,1.36,0,0,0,.12-.85c-.1-.23-.42-.07-.64-.11Z"/><path class="cls-1" d="M117.69,20.14a4.19,4.19,0,0,0-.23,1.16c0,.41-.24.54-.64.52-.71,0-1.43,0-2.15,0-.36,0-.53.11-.59.48-.16,1-.18,1,.85,1h1.58c.58,0,.6,0,.43.56a13.5,13.5,0,0,1-3,5.14c-.65.7-.65.68.18,1.21A6.9,6.9,0,0,0,116,31c.28.08.38.22.32.51-.09.44-.17.89-.24,1.34s-.17.41-.5.34a9,9,0,0,1-3.68-1.79.59.59,0,0,0-.84,0,13,13,0,0,1-4.32,1.81c-.47.1-.51.06-.43-.42s.15-.78.19-1.17A.61.61,0,0,1,107,31a10.86,10.86,0,0,0,2.87-1.21c.24-.14.26-.25.12-.48a9,9,0,0,1-1.21-2.9c-.09-.36,0-.53.39-.5s.91,0,1.36,0a.49.49,0,0,1,.57.41,6.07,6.07,0,0,0,.67,1.52c.15.24.28.26.47.05a13.51,13.51,0,0,0,1.62-2.08c.19-.3.12-.4-.23-.39h-4.8c-.59,0-.6,0-.5-.6.06-.36.13-.72.18-1.08s.18-.48.54-.47c.78,0,1.55,0,2.33,0,.31,0,.44-.11.49-.42.17-1,.18-1-.88-1-.58,0-1.15,0-1.72,0-.29,0-.4-.1-.34-.4s.16-.89.22-1.34a.43.43,0,0,1,.51-.41c.77,0,1.55,0,2.33,0,.3,0,.45-.09.5-.41.1-.68.23-1.35.35-2H115c-.11.66-.21,1.33-.34,2-.07.35,0,.46.38.45.9,0,1.8,0,2.69,0Z"/><path class="cls-1" d="M74.16,17.24c-.08.39-.16.77-.23,1.16s.07.43.38.42.82,0,1.23,0,.55.06.47.53l-1.08,6.09c-.22,1.24-.45,2.48-.65,3.72-.06.34-.21.48-.55.47s-.88,0-1.32,0-.49.1-.55.46c-.18,1.13-.26,1,.84.73a6.88,6.88,0,0,0,1-.36c.32-.14.36,0,.31.26-.09.5-.19,1-.26,1.51a.62.62,0,0,1-.49.54,12.13,12.13,0,0,1-3.38.55c-.8,0-1.61,0-2.42,0-.36,0-.52-.11-.44-.49s.18-.86.24-1.29c0-.28.19-.37.45-.36.48,0,1,0,1.45,0a.39.39,0,0,0,.45-.35c.3-1.22.3-1.22-.93-1.22-1.07,0-1.07,0-.89-1,.54-3.07,1.08-6.13,1.61-9.2.07-.41.24-.59.66-.56s.88,0,1.32,0a.35.35,0,0,0,.42-.34,6.67,6.67,0,0,1,.26-1.24Zm-.06,4c0-.05,0-.17-.22-.19a.39.39,0,0,0-.48.38c-.33,1.86-.66,3.71-1,5.57,0,.16-.18.4.15.45s.46-.05.5-.35.15-.89.23-1.34ZM71,21c-.3-.05-.3.21-.34.42l-1,5.57c0,.17-.07.37.19.41s.4,0,.45-.3.09-.52.14-.78c.28-1.64.57-3.28.86-4.92C71.31,21.18,71.3,21,71,21Z"/><path class="cls-1" d="M107.12,17.24c-.13.69-.25,1.38-.38,2.07-.06.29.05.37.31.37h1.28c.26,0,.34.11.3.35l-.27,1.51c0,.25-.22.29-.43.29H106.7a.39.39,0,0,0-.47.38c-.12.76-.27,1.52-.42,2.39l1.75-1.07c.12-.07.25-.23.39-.14s0,.28,0,.42a2.43,2.43,0,0,1-1.66,2.44,1.67,1.67,0,0,0-1.08,1.52c-.24,1.71-.6,3.4-.89,5.1-.06.36-.22.46-.55.46-1.06,0-2.12,0-3.17,0-.4,0-.53-.13-.42-.53a9.22,9.22,0,0,0,.2-1.17c0-.31.18-.46.51-.44s.8,0,1.19,0,.41-.07.46-.35c.12-.72.26-1.44.38-2.16,0-.09.06-.21-.06-.27s-.16,0-.24.08l-1.46.89c-.09.06-.2.17-.32.1s0-.2,0-.29c.08-.51.18-1,.27-1.52,0-.21.19-.31.35-.41.54-.33,1.07-.67,1.62-1a.8.8,0,0,0,.4-.59c.19-1.13.38-2.25.59-3.37.07-.36,0-.53-.41-.51s-.73,0-1.1,0-.42-.08-.36-.4.17-.92.25-1.38a.38.38,0,0,1,.44-.37c.4,0,.8,0,1.19,0s.49-.13.54-.46a16.86,16.86,0,0,1,.38-2Z"/><path class="cls-1" d="M93.81,17.24a13.27,13.27,0,0,1-.3,2c0,.23-.25.27-.44.31-.57.11-1.15.24-1.72.33a.44.44,0,0,0-.43.41q-.15.93-.33,1.86c-.06.32,0,.46.38.45.52,0,1,0,1.55,0,.3,0,.39.13.33.4-.08.46-.17.92-.24,1.39,0,.27-.19.36-.45.35-.51,0-1,0-1.54,0s-.51.13-.57.48c-.44,2.52-.89,5-1.32,7.56-.07.41-.23.6-.66.56a6.14,6.14,0,0,0-1,0c-.41,0-.51-.15-.44-.53.25-1.36.49-2.73.73-4.1.21-1.18.41-2.36.63-3.54.06-.31,0-.43-.35-.42-.51,0-1,0-1.54,0-.31,0-.43-.1-.37-.41s.18-.92.25-1.38c0-.28.19-.37.45-.36.54,0,1.08,0,1.63,0,.23,0,.39,0,.43-.31.11-.67.23-1.33.35-2,0-.25-.06-.31-.28-.31H86.88c-.3,0-.43-.1-.36-.42s.17-.89.24-1.34a.41.41,0,0,1,.47-.39c.94,0,1.88,0,2.82,0a11,11,0,0,0,3.5-.59Z"/><path class="cls-1" d="M100.07,17.24c-.1,1.14-.36,2.25-.55,3.37-.37,2.12-.74,4.24-1.13,6.35-.08.42.07.49.42.47s.68,0,1,0,.56.08.45.5-.16.86-.23,1.29a.41.41,0,0,1-.47.4,9.37,9.37,0,0,1-1.06,0c-.48-.06-.64.15-.7.59-.13.88-.32,1.76-.45,2.64a.46.46,0,0,1-.55.47,11.81,11.81,0,0,0-1.19,0c-.4,0-.46-.17-.4-.51.18-.89.31-1.79.49-2.68.08-.38,0-.53-.42-.51-.85,0-1.7,0-2.55,0-.42,0-.51-.16-.43-.53s.17-.83.23-1.25.19-.42.49-.42c.85,0,1.71,0,2.56,0,.42,0,.62-.11.7-.56.52-3.07,1.08-6.14,1.62-9.2a3.27,3.27,0,0,0,0-.44Z"/><path class="cls-1" d="M64.29,17.24a4.34,4.34,0,0,1-.16,1.13c-.06.34,0,.47.4.46.8,0,1.61,0,2.42,0,.53,0,.56.05.47.56-.15.92-.32,1.84-.47,2.76,0,.33-.17.5-.53.48s-.88,0-1.32,0c-.26,0-.35-.11-.3-.35l.15-.86c0-.27,0-.39-.32-.39H60.54c-.23,0-.36.07-.39.31s-.12.49-.13.74c0,.43-.21.59-.64.55a11,11,0,0,0-1.15,0c-.3,0-.42-.12-.37-.43.18-1,.36-2,.52-2.94a.44.44,0,0,1,.53-.43c.85,0,1.7,0,2.56,0,.33,0,.51-.1.54-.46s.11-.75.17-1.13Z"/><path class="cls-1" d="M37.8,38.42h-4c-.69,0-.69,0-.57-.69q.93-5.31,1.88-10.63c.22-1.23.45-2.47.65-3.71.05-.35.19-.48.54-.47,1,0,2,0,3,0,.42,0,.49.13.42.52-.62,3.44-1.22,6.89-1.83,10.33-.12.69-.13.69.55.69h4.05c.54,0,.56,0,.47.55-.17,1-.36,2-.52,3,0,.33-.21.43-.52.43C40.56,38.41,39.18,38.42,37.8,38.42Z"/><path class="cls-1" d="M55.26,18.09c.77,0,1.53,0,2.29,0,.38,0,.49.11.42.48-.41,2.25-.82,4.49-1.19,6.74A13.85,13.85,0,0,1,55.67,29c-.22.44-.47.71-1,.64s-.86,0-1.28,0c-.19,0-.36-.08-.21-.29,1.39-2,1.47-4.35,1.92-6.6.13-.68.23-1.36.37-2,.06-.34,0-.48-.38-.47-1,0-.84-.06-1,.85Q53,26.9,52,32.74c-.08.47-.28.62-.72.58s-.71,0-1.06,0-.45-.09-.38-.44c.47-2.68.93-5.36,1.4-8,.36-2.08.74-4.17,1.08-6.26.07-.37.21-.49.58-.48C53.71,18.11,54.48,18.09,55.26,18.09Z"/><path class="cls-1" d="M60.41,33.31h-4c-.5,0-.54-.05-.46-.53.49-2.77,1-5.55,1.47-8.33.06-.34.2-.48.55-.46s.79,0,1.19,0,.48.11.41.47c-.36,2-.71,4-1.07,6-.13.72-.14.72.58.72,1.91,0,3.81,0,5.72,0,.42,0,.51.15.43.52a10.5,10.5,0,0,0-.2,1.12c0,.38-.23.51-.61.51C63.11,33.3,61.76,33.31,60.41,33.31Z"/><path class="cls-1" d="M65.43,24h.35c.76,0,.79,0,.46.67a8.56,8.56,0,0,1-6.52,4.87c-.31.06-.46,0-.39-.36a.28.28,0,0,0,0-.09c0-1,.31-1.63,1.49-1.88a5,5,0,0,0,3.24-2.59,1,1,0,0,1,1.1-.62A1.13,1.13,0,0,0,65.43,24Z"/><path class="cls-1" d="M84.38,33.31c-.93,0-.94,0-.48-.82a10.36,10.36,0,0,0,1-3.48c.15-.89.32-1.79.46-2.68a.5.5,0,0,1,.62-.5,4.09,4.09,0,0,0,.7,0c.42,0,.5.16.43.54-.26,1.39-.5,2.79-.75,4.18a10.74,10.74,0,0,1-.72,2.16.83.83,0,0,1-1,.6A1.22,1.22,0,0,0,84.38,33.31Z"/><path class="cls-1" d="M90.79,33.31c-.83,0-1,.23-1.08-1a11.46,11.46,0,0,1,.29-3c.17-1,.36-2,.52-3,.06-.34.21-.49.55-.46s.53,0,.8,0,.47.08.4.46c-.27,1.43-.5,2.87-.75,4.31a5.27,5.27,0,0,0,.07,2.13c.13.56.12.57-.45.57Z"/><path class="cls-1" d="M96.17,24.51c-.1.54-.21,1.09-.31,1.63,0,.22-.16.26-.34.15l-2.25-1.45a.32.32,0,0,1-.15-.33c.1-.54.2-1.07.29-1.6,0-.25.15-.28.36-.15L96,24.16C96.07,24.24,96.19,24.33,96.17,24.51Z"/><path class="cls-1" d="M96.88,20.46c-.1.53-.19,1.06-.28,1.59,0,.24-.16.29-.37.15-.72-.47-1.45-.93-2.18-1.39a.36.36,0,0,1-.19-.44c.1-.5.18-1,.26-1.51,0-.27.17-.31.39-.17l2.17,1.41A.32.32,0,0,1,96.88,20.46Z"/><path class="cls-1" d="M75,33.31c-.86,0-.86,0-.72-.83.1-.6.23-1.2.32-1.81a.38.38,0,0,1,.45-.36q.48,0,1,0c.29,0,.36.12.32.38-.14.74-.27,1.49-.4,2.24a.41.41,0,0,1-.49.38Z"/><path class="cls-1" d="M81.26,33.31c-.84,0-.84,0-.69-.84.1-.59.21-1.17.31-1.77a.41.41,0,0,1,.46-.4c1.32,0,1.32-.05,1.12,1.23-.07.41-.18.81-.21,1.21s-.28.63-.72.57A2.43,2.43,0,0,0,81.26,33.31Z"/><path class="cls-1" d="M66.51,36.65a1.79,1.79,0,0,1-1.77,1.77,1.18,1.18,0,0,1-1.26-1.22,1.79,1.79,0,0,1,1.79-1.79A1.18,1.18,0,0,1,66.51,36.65Zm-1.68,1.13a1,1,0,0,0,1-1,.62.62,0,0,0-.66-.7,1.07,1.07,0,0,0-1,1.08A.65.65,0,0,0,64.83,37.78Z"/><path class="cls-1" d="M86.11,35.41a1.23,1.23,0,0,1,1.27,1.23,1.85,1.85,0,0,1-1.78,1.78,1.23,1.23,0,0,1-1.29-1.21A1.84,1.84,0,0,1,86.11,35.41Zm.55,1.32a.59.59,0,0,0-.68-.67,1,1,0,0,0-1,1,.62.62,0,0,0,.69.67A1,1,0,0,0,86.66,36.73Z"/><path class="cls-1" d="M113.71,37.19c-.55-.12-.51.35-.58.71s-.06.51-.41.5-.35-.08-.3-.32l.42-2.37c0-.27.24-.3.46-.27s.23.22.19.4a.28.28,0,0,1,0,.09c-.1.67.13.87.8.7a.28.28,0,0,0,.23-.28c0-.21.07-.41.11-.61s.24-.34.49-.3.2.23.17.41c-.13.72-.26,1.44-.38,2.16,0,.28-.17.42-.46.38s-.21-.28-.2-.47a1,1,0,0,1,0-.17C114.35,37.21,114.33,37.19,113.71,37.19Z"/><path class="cls-1" d="M78.24,38.42a.92.92,0,0,1-1-1.1c.07-.52.18-1,.27-1.56,0-.28.22-.36.47-.32s.22.24.19.43c-.07.44-.15.87-.21,1.3,0,.25-.06.53.29.59a.56.56,0,0,0,.7-.45c.1-.38.13-.78.22-1.16s0-.83.54-.69.13.51.11.77a8.47,8.47,0,0,1-.2,1.12A1.38,1.38,0,0,1,78.24,38.42Z"/><path class="cls-1" d="M57.4,38.42a.93.93,0,0,1-1-1.14c.07-.49.17-1,.25-1.46,0-.28.18-.43.48-.38s.21.31.18.5c-.06.38-.15.77-.21,1.16s-.09.58.3.67a.57.57,0,0,0,.7-.5c.11-.49.19-1,.27-1.47,0-.27.17-.39.44-.37s.29.1.25.31c-.11.56-.18,1.13-.32,1.68A1.36,1.36,0,0,1,57.4,38.42Z"/><path class="cls-1" d="M106.8,35.41a1.21,1.21,0,0,1,.92.37c.14.15.38.36.19.55a.55.55,0,0,1-.69,0,.9.9,0,0,0-1.47.54.7.7,0,0,0,1.11.78.92.92,0,0,1,.69-.19c.18,0,.23.08.15.26a1.74,1.74,0,0,1-1.69.69,1.21,1.21,0,0,1-1-1.21A1.85,1.85,0,0,1,106.8,35.41Z"/><path class="cls-1" d="M99.32,38.41c-.9,0-.91,0-.76-.88.09-.57.2-1.13.29-1.69a.44.44,0,0,1,.51-.42h1c.15,0,.3,0,.29.24s-.1.3-.3.3h-.44c-.31,0-.41.13-.43.42s.23.21.4.24.43-.09.44.22-.21.34-.45.34a1,1,0,0,0-.43.05.41.41,0,0,0-.17.46c0,.18.2.12.31.16s.62-.2.62.23-.42.27-.68.32A1,1,0,0,1,99.32,38.41Z"/><path class="cls-1" d="M51,35.43h.79c.15,0,.31,0,.3.24S52,36,51.77,36c-.55-.08-.61.28-.67.68s-.16.92-.23,1.38c0,.28-.19.43-.48.36s-.21-.3-.18-.49c.08-.51.16-1,.27-1.51.06-.29,0-.42-.31-.41s-.34,0-.33-.24.17-.3.36-.3Z"/><path class="cls-1" d="M93.16,35.43H94c.15,0,.31,0,.29.24S94.16,36,94,36c-.55-.08-.61.29-.67.68s-.17,1-.25,1.42c0,.28-.21.37-.47.32s-.21-.27-.18-.45c.08-.52.17-1,.28-1.55.06-.29,0-.42-.32-.41s-.34,0-.32-.25a.3.3,0,0,1,.32-.29Z"/><path class="cls-1" d="M71.69,38.41h-.18c-.6,0-.63,0-.52-.63s.23-1.29.33-1.93c.05-.3.18-.47.5-.41s.21.28.18.48l-.27,1.5c0,.29,0,.45.35.44.16,0,.42-.1.42.22s-.23.32-.46.33Z"/></svg>